<?xml version="1.0" encoding="utf-8" ?>
<svg baseProfile="full" height="200mm" version="1.1" viewBox="0,0,200,200" width="200mm" xmlns="http://www.w3.org/2000/svg" xmlns:ev="http://www.w3.org/2001/xml-events" xmlns:xlink="http://www.w3.org/1999/xlink"><defs /><rect fill="#1a1a1a" height="200" width="200" x="0" y="0" /><text alignment-baseline="middle" fill="#e1ed5e" style="dominant-baseline: central; font-size:9.0px; font-family:Arial;" text-anchor="middle" x="100.0" y="100.0">2021</text><line stroke="#e1ed5e" stroke-width="0.3" x1="100.0" x2="100.0" y1="15.0" y2="10.0" /><path d="M 100.0 14.0 a86.0,86.0 0 0,1 42.46469731375804,11.215312516191453" fill="none" id="id61" stroke="none" /><text fill="#e1ed5e" style="font-size:6.75px; font-family:Arial;" text-anchor="middle"><textPath startOffset="22.20632615414155" xlink:href="#id61">January</textPath></text><path d="M 100.36148047927253 79.00311137660856 l 0.2499983267465596 -14.521356819310434 a35.52350863383603,35.52350863383603 0 0,0 0.611297611652071,0.01578801380534636 l -0.49992257359349845 14.514902013362729" fill="#ff7b0b" stroke="none" /><path d="M 102.88285421437855 79.19881850522331 l 1.8180764352894048 -13.118297038126066 a34.24368223361848,34.24368223361848 0 0,0 0.5831715710041001,0.08594433030241547 l -2.0436169867221605 13.085058223662681" fill="#ff6809" stroke="none" /><path d="M 105.36241919743992 79.69619591428918 l 3.3453391497818763 -12.666505209040134 a34.1008262425583,34.1008262425583 0 0,0 0.5662395280950263,0.15477465285046357 l -3.5628765671006133 12.607044015363376" fill="#ff6609" stroke="none" /><path d="M 107.08798089147638 80.2323363322302 l 3.5184935161893245 -9.812723469514317 a31.424458667605883,31.424458667605883 0 0,0 0.5076062753848128,0.1869556750898045 l -3.686882117346714 9.750704526618188" fill="#ff3d05" stroke="none" /><path d="M 108.09893153111575 80.62456947434976 l 5.774391018651909 -13.814329900183198 a35.97261841587447,35.97261841587447 0 0,0 0.5692516844955384,0.24372386326785825 l -6.011326460937762 13.712886508952549" fill="#ff810b" stroke="none" /><path d="M 109.08828744355905 81.06846463323043 l 2.9042268606845374 -6.049706709610874 a27.71069928775179,27.71069928775179 0 0,0 0.428234196671858,0.2101326605061838 l -3.0079323243668274 5.998818888969858" fill="#ff0200" stroke="none" /><path d="M 110.36928655335952 81.73862282372117 l 6.6490048884230735 -11.709579582895884 a34.46564220579346,34.46564220579346 0 0,0 0.5133793095072897,0.2973824324081818 l -6.849580930395692 11.593392993097654" fill="#ff6b09" stroke="none" /><line stroke="#e1ed5e" stroke-width="0.3" x1="143.23703022742887" x2="145.7803849466894" y1="26.81831364943548" y2="22.513508569990506" /><path d="M 143.74570117128098 25.957352633546492 a86.0,86.0 0 0,1 28.547481713284135,27.462654790039103" fill="none" id="id62" stroke="none" /><text fill="#e1ed5e" style="font-size:6.75px; font-family:Arial;" text-anchor="middle"><textPath startOffset="19.985693538727396" xlink:href="#id62">February</textPath></text><path d="M 110.99172775467656 82.1063720568725 l 3.46138207218626 -5.634845071773266 a27.61306622018409,27.61306622018409 0 0,0 0.40286260162575366,0.25227252417936086 l -3.5578638261842768 5.5744282062709605" fill="#ff0100" stroke="none" /><path d="M 111.60114157652 82.49532879139004 l 3.887137761366357 -5.8652045582311665 a28.036367279053582,28.036367279053582 0 0,0 0.3999792391761185,0.270067767760566 l -3.9875216949490175 5.79742487817193" fill="#ff0801" stroke="none" /><path d="M 112.19680574252982 82.90503203632743 l 3.8642961755951593 -5.416173768644425 a27.65339937361882,27.65339937361882 0 0,0 0.38511267455019194,0.27980073613460055 l -3.95695416649914 5.348853797693149" fill="#ff0100" stroke="none" /><path d="M 112.77801427241765 83.33499621200491 l 9.182823065555477 -11.976178607211445 a36.09149076417326,36.09149076417326 0 0,0 0.4897571382644511,0.382263214814407 l -9.387612758979358 11.816337003173814" fill="#ff830c" stroke="none" /><path d="M 114.16331599549186 84.49514656593476 l 8.699104548794956 -9.523076451842734 a33.89819386807729,33.89819386807729 0 0,0 0.42742735666003495,0.3972471452993602 l -8.861739789249837 9.371924720468732" fill="#ff6309" stroke="none" /><path d="M 115.19652480421416 85.50635884689758 l 12.241567232909157 -11.675358998931149 a37.916559226738684,37.916559226738684 0 0,0 0.4463910704424837,0.4761788702307412 l -12.440725625322104 11.462910711822353" fill="#ff9e0e" stroke="none" /><path d="M 115.4437574822437 85.77008943001954 l 4.830053791911062 -4.450421705087801 a27.56777534526502,27.56777534526502 0 0,0 0.31854742864747715,0.351748026902048 l -4.905944861174575 4.366620890916203" fill="#ff0000" stroke="none" /><path d="M 116.15771136456269 86.58626213691792 l 13.065292440415066 -10.846487101174848 a37.98081708839476,37.98081708839476 0 0,0 0.41327018937468096,0.5066203865561205 l -13.250061121866155 10.619982545010627" fill="#ff9f0e" stroke="none" /><path d="M 116.82858285166822 87.43820079747576 l 6.684144597833117 -4.989420857282311 a29.340989719201517,29.340989719201517 0 0,0 0.2986317375641276,0.40733335442837315 l -6.769038947910871 4.8736250591824435" fill="#ff1c02" stroke="none" /><path d="M 117.65298651832404 88.62581576622439 l 11.213708140186185 -7.225224026420212 a34.339831801234894,34.339831801234894 0 0,0 0.3158813263597199,0.4996483992364681 l -11.33641706279186 7.031127979469537" fill="#ff6909" stroke="none" /><line stroke="#e1ed5e" stroke-width="0.3" x1="172.23445277983987" x2="176.4835382374775" y1="55.19839476539836" y2="52.563006222186495" /><path d="M 173.08426987136738 54.67131705675599 a86.0,86.0 0 0,1 12.851231095245387,41.99856678651699" fill="none" id="id63" stroke="none" /><text fill="#e1ed5e" style="font-size:6.75px; font-family:Arial;" text-anchor="middle"><textPath startOffset="22.20632615414155" xlink:href="#id63">March</textPath></text><path d="M 118.56541770881063 90.18545643968196 l 8.508791518128373 -4.498143069557985 a30.624594753712277,30.624594753712277 0 0,0 0.2423580362552938,0.46815858503163704 l -8.584958987543784 4.351011762266003" fill="#ff3004" stroke="none" /><path d="M 118.89224826269711 90.83032412892265 l 11.175557090558916 -5.424247806518904 a33.42238063137927,33.42238063137927 0 0,0 0.24675553615225462,0.5197300896440764 l -11.267270820552927 5.231075301234288" fill="#ff5b08" stroke="none" /><path d="M 119.34039704204932 91.81776055985345 l 8.832916777089457 -3.736895363001057 a30.590870958625562,30.590870958625562 0 0,0 0.20099413197872232,0.48672323329801626 l -8.895932595954378 3.5842975592497375" fill="#ff3004" stroke="none" /><path d="M 119.61058180528143 92.48833698450437 l 13.813163718304704 -5.291012375871047 a35.79183233647238,35.79183233647238 0 0,0 0.2154249226880601,0.5772316902708826 l -13.902193229494388 5.05245754857083" fill="#ff7f0b" stroke="none" /><path d="M 120.28053869075195 94.5502522615342 l 6.630687943478586 -1.7817858379138072 a27.86591460593434,27.86591460593434 0 0,0 0.12049177438132128,0.46430395837937727 l -6.6603760497302105 1.6673854539855795" fill="#ff0500" stroke="none" /><line stroke="#e1ed5e" stroke-width="0.3" x1="184.98032266829074" x2="189.97916517819016" y1="98.17113171792111" y2="98.06355123074" /><path d="M 185.9800911702706 98.14961562048488 a86.0,86.0 0 0,1 -9.607161424134198,41.387399972396054" fill="none" id="id64" stroke="none" /><text fill="#e1ed5e" style="font-size:6.75px; font-family:Arial;" text-anchor="middle"><textPath startOffset="21.466115282336823" xlink:href="#id64">April</textPath></text><path d="M 120.9904718944345 100.63252640178507 l 16.29121082703808 0.49091897585592553 a37.29860581926743,37.29860581926743 0 0,0 -0.024861949004449758,0.6415764322178662 l -16.280346745182424 -0.771272655087798" fill="#ff950d" stroke="none" /><path d="M 120.32669344350535 105.2749913415812 l 60.980080330516046 15.82497402474362 a84.0,84.0 0 0,0 -0.3752476946328911,1.396436267297807 l -60.69864455954138 -16.872301225216972" fill="#4dd2ff" stroke="none" /><line stroke="#e1ed5e" stroke-width="0.3" x1="174.80103733775053" x2="179.2010983576182" y1="140.37084112569926" y2="142.7455964860345" /><path d="M 175.68104954172406 140.8457921977663 a86.0,86.0 0 0,1 -30.038265399797805,32.042727171017184" fill="none" id="id65" stroke="none" /><text fill="#e1ed5e" style="font-size:6.75px; font-family:Arial;" text-anchor="middle"><textPath startOffset="22.206326154141568" xlink:href="#id65">May</textPath></text><path d="M 118.30583269289576 110.29060199501025 l 12.459649580936645 7.004177137731328 a35.293402850841815,35.293402850841815 0 0,0 -0.30225943103399133,0.5270147955310265 l -12.337238153750276 -7.21761177912067" fill="#ff770b" stroke="none" /><line stroke="#e1ed5e" stroke-width="0.3" x1="143.8653032363475" x2="146.44561519142675" y1="172.8068346515853" y2="177.08958963109032" /><path d="M 144.38136562736335 173.6633856474863 a86.0,86.0 0 0,1 -40.68145358897372,12.25698825130547" fill="none" id="id66" stroke="none" /><text fill="#e1ed5e" style="font-size:6.75px; font-family:Arial;" text-anchor="middle"><textPath startOffset="21.466115282336833" xlink:href="#id66">June</textPath></text><line stroke="#e1ed5e" stroke-width="0.3" x1="102.19456741930631" x2="102.32365962044197" y1="184.97166512339345" y2="189.96999836594603" /><path d="M 102.22038585953345 185.97133177190398 a86.0,86.0 0 0,1 -42.740103519485714,-10.115201625700543" fill="none" id="id67" stroke="none" /><text fill="#e1ed5e" style="font-size:6.75px; font-family:Arial;" text-anchor="middle"><textPath startOffset="22.20632615414155" xlink:href="#id67">July</textPath></text><line stroke="#e1ed5e" stroke-width="0.3" x1="58.666819895761336" x2="56.23545636021788" y1="174.27360380694188" y2="178.64263932499728" /><path d="M 58.180547188652646 175.14741091055294 a86.0,86.0 0 0,1 -31.652253787137756,-30.449443065178592" fill="none" id="id68" stroke="none" /><text fill="#e1ed5e" style="font-size:6.75px; font-family:Arial;" text-anchor="middle"><textPath startOffset="22.20632615414155" xlink:href="#id68">August</textPath></text><line stroke="#e1ed5e" stroke-width="0.3" x1="26.63291911575756" x2="22.317208475507996" y1="142.92168965132927" y2="145.44649492493687" /><path d="M 25.769776987707644 143.4266507060508 a86.0,86.0 0 0,1 -11.730757126820373,-40.83630448921669" fill="none" id="id69" stroke="none" /><text fill="#e1ed5e" style="font-size:6.75px; font-family:Arial;" text-anchor="middle"><textPath startOffset="21.46611528233685" xlink:href="#id69">September</textPath></text><line stroke="#e1ed5e" stroke-width="0.3" x1="15.007084014347285" x2="10.007500721073583" y1="101.09737516637583" y2="101.16192664675087" /><path d="M 14.007167355692545 101.11028546245083 a86.0,86.0 0 0,1 10.666146001902534,-42.60595125391555" fill="none" id="id70" stroke="none" /><text fill="#e1ed5e" style="font-size:6.75px; font-family:Arial;" text-anchor="middle"><textPath startOffset="22.20632615414155" xlink:href="#id70">October</textPath></text><line stroke="#e1ed5e" stroke-width="0.3" x1="26.266209847984243" x2="21.928928074336255" y1="57.711370442889674" y2="55.22380399835377" /><path d="M 25.398753493254645 57.213857153982495 a86.0,86.0 0 0,1 29.58750427330803,-30.492523968695096" fill="none" id="id71" stroke="none" /><text fill="#e1ed5e" style="font-size:6.75px; font-family:Arial;" text-anchor="middle"><textPath startOffset="21.46611528233685" xlink:href="#id71">November</textPath></text><line stroke="#e1ed5e" stroke-width="0.3" x1="56.762969772571076" x2="54.21961505331055" y1="26.818313649435495" y2="22.513508569990535" /><path d="M 56.25429882871897 25.957352633546506 a86.0,86.0 0 0,1 42.265352541879196,-11.944610805530505" fill="none" id="id72" stroke="none" /><text fill="#e1ed5e" style="font-size:6.75px; font-family:Arial;" text-anchor="middle"><textPath startOffset="22.20632615414155" xlink:href="#id72">December</textPath></text></svg>