<?xml version="1.0" encoding="utf-8" ?>
<svg baseProfile="full" height="200mm" version="1.1" viewBox="0,0,200,200" width="200mm" xmlns="http://www.w3.org/2000/svg" xmlns:ev="http://www.w3.org/2001/xml-events" xmlns:xlink="http://www.w3.org/1999/xlink"><defs /><rect fill="#1a1a1a" height="200" width="200" x="0" y="0" /><text alignment-baseline="middle" fill="#e1ed5e" style="dominant-baseline: central; font-size:9.0px; font-family:Arial;" text-anchor="middle" x="100.0" y="100.0">2021</text><line stroke="#e1ed5e" stroke-width="0.3" x1="100.0" x2="100.0" y1="15.0" y2="10.0" /><path d="M 100.0 14.0 a86.0,86.0 0 0,1 42.46469731375804,11.215312516191453" fill="none" id="id61" stroke="none" /><text fill="#e1ed5e" style="font-size:6.75px; font-family:Arial;" text-anchor="middle"><textPath startOffset="22.20632615414155" xlink:href="#id61">January</textPath></text><path d="M 100.36148047927253 79.00311137660856 l 0.9275109968528693 -53.87523314421617 a74.88321652419175,74.88321652419175 0 0,0 1.2886095201323071,0.033280982136617655 l -1.8547471521800443 53.85128536993719" fill="#3bff9a" stroke="none" /><path d="M 102.88285421437855 79.19881850522331 l 6.745188693040693 -48.66978479891682 a70.13497250307157,70.13497250307157 0 0,0 1.1944019868515083,0.17602380495860218 l -7.581959660320857 48.54646650979725" fill="#31ff43" stroke="none" /><path d="M 105.36241919743992 79.69619591428918 l 12.41143846842894 -46.993606021167295 a69.60496694503854,69.60496694503854 0 0,0 1.155780899726132,0.3159185797715768 l -13.218517257378783 46.77300090056943" fill="#30ff39" stroke="none" /><path d="M 107.08798089147638 80.2323363322302 l 13.053853084102805 -36.405879373254734 a59.67545905715037,59.67545905715037 0 0,0 0.9639509728485898,0.3550312784170395 l -13.67858638272397 36.175784827031364" fill="#d1ff1d" stroke="none" /><path d="M 108.09893153111575 80.62456947434976 l 21.4233880667435 -51.25211461740171 a76.54944472281942,76.54944472281942 0 0,0 1.2113630387393015,0.5186424347309047 l -22.302434863273117 50.875752654708016" fill="#3effb7" stroke="none" /><path d="M 109.08828744355905 81.06846463323043 l 10.774881518991862 -22.44482822713889 a45.89715618085895,45.89715618085895 0 0,0 0.7092831401523088,0.34804215648988046 l -11.159635926154603 22.256030910514177" fill="#ff0c01" stroke="none" /><path d="M 110.36928655335952 81.73862282372117 l 24.66826571360544 -43.44334609355232 a70.95845927489367,70.95845927489367 0 0,0 1.0569541866863177,0.6122560866008673 l -25.412416632757083 43.0122858495614" fill="#33ff53" stroke="none" /><line stroke="#e1ed5e" stroke-width="0.3" x1="143.23703022742887" x2="145.7803849466894" y1="26.81831364943548" y2="22.513508569990506" /><path d="M 143.74570117128098 25.957352633546492 a86.0,86.0 0 0,1 28.547481713284135,27.462654790039103" fill="none" id="id62" stroke="none" /><text fill="#e1ed5e" style="font-size:6.75px; font-family:Arial;" text-anchor="middle"><textPath startOffset="19.985693538727396" xlink:href="#id62">February</textPath></text><path d="M 110.99172775467656 82.1063720568725 l 12.84196569650164 -20.905663000417746 a45.53493078117728,45.53493078117728 0 0,0 0.6643347947336865,0.4160063875160433 l -13.19991964360759 20.68151227157876" fill="#ff0400" stroke="none" /><path d="M 111.60114157652 82.49532879139004 l 14.421548603420625 -21.760312548275266 a47.10540684071883,47.10540684071883 0 0,0 0.6720266075023491,0.4537553652477217 l -14.793979905329516 21.508845270728873" fill="#ff2803" stroke="none" /><path d="M 112.19680574252982 82.90503203632743 l 14.33680474827546 -20.09437741707959 a45.68456955610553,45.68456955610553 0 0,0 0.6362222065259132,0.46224249030248304 l -14.680572271155162 19.84461569196043" fill="#ff0701" stroke="none" /><path d="M 112.77801427241765 83.33499621200491 l 34.06890552548106 -44.43244682082882 a76.9904693156785,76.9904693156785 0 0,0 1.044751300855485,0.8154449618882453 l -34.82868938149597 43.83942346971735" fill="#3fffbe" stroke="none" /><path d="M 114.16331599549186 84.49514656593476 l 32.274276539297574 -35.331269004488604 a68.85318689076612,68.85318689076612 0 0,0 0.8681800506797559,0.8068787394268203 l -32.87766447377217 34.77048567898714" fill="#33ff2f" stroke="none" /><path d="M 115.19652480421416 85.50635884689758 l 45.41705688593471 -43.31638537201839 a83.76159891109721,83.76159891109721 0 0,0 0.9861240197536438,1.0519283487642932 l -46.155948227658826 42.52818760637604" fill="#4dd5ff" stroke="none" /><path d="M 115.4437574822437 85.77008943001954 l 17.919831967235606 -16.51137079923851 a45.36689851835693,45.36689851835693 0 0,0 0.5242174490955361,0.5788540003913794 l -18.201393056947175 16.200464011577584" fill="#ff0000" stroke="none" /><path d="M 116.15771136456269 86.58626213691792 l 48.47313409368808 -40.241213589246215 a84.0,84.0 0 0,0 0.9140060316943646,1.1204633215675965 l -49.158638617458855 39.400866098070516" fill="#4dd2ff" stroke="none" /><path d="M 116.82858285166822 87.43820079747576 l 24.798636453794717 -18.511094747237543 a51.94564587641825,51.94564587641825 0 0,0 0.5287012686151406,0.7211479362246155 l -25.113600334923486 18.08148436734143" fill="#ff930d" stroke="none" /><path d="M 117.65298651832404 88.62581576622439 l 41.60362891574575 -26.806078370372674 a70.49169401584106,70.49169401584106 0 0,0 0.6484309513206952,1.0256620439595547 l -42.0588874633124 26.085968678698915" fill="#32ff4a" stroke="none" /><line stroke="#e1ed5e" stroke-width="0.3" x1="172.23445277983987" x2="176.4835382374775" y1="55.19839476539836" y2="52.563006222186495" /><path d="M 173.08426987136738 54.67131705675599 a86.0,86.0 0 0,1 12.851231095245387,41.99856678651699" fill="none" id="id63" stroke="none" /><text fill="#e1ed5e" style="font-size:6.75px; font-family:Arial;" text-anchor="middle"><textPath startOffset="22.20632615414155" xlink:href="#id63">March</textPath></text><path d="M 118.56541770881063 90.18545643968196 l 31.568202098381015 -16.688420345557237 a56.70790889080788,56.70790889080788 0 0,0 0.44877712013656373,0.8668945532154496 l -31.850788651677696 16.142553070081444" fill="#fff517" stroke="none" /><path d="M 118.89224826269711 90.83032412892265 l 41.46208589611328 -20.12433265324074 a67.08788703764762,67.08788703764762 0 0,0 0.4953060560789105,1.0432408728949767 l -41.80235014603395 19.40764936470522" fill="#50ff2b" stroke="none" /><path d="M 119.34039704204932 91.81776055985345 l 32.77072911508765 -13.864138965960791 a56.58279129019989,56.58279129019989 0 0,0 0.37177133778534016,0.900273783085197 l -33.00452213975918 13.297990612422291" fill="#fff216" stroke="none" /><line stroke="#e1ed5e" stroke-width="0.3" x1="184.98032266829074" x2="189.97916517819016" y1="98.17113171792111" y2="98.06355123074" /><path d="M 185.9800911702706 98.14961562048488 a86.0,86.0 0 0,1 -9.607161424134198,41.387399972396054" fill="none" id="id64" stroke="none" /><text fill="#e1ed5e" style="font-size:6.75px; font-family:Arial;" text-anchor="middle"><textPath startOffset="21.466115282336823" xlink:href="#id64">April</textPath></text><line stroke="#e1ed5e" stroke-width="0.3" x1="174.80103733775053" x2="179.2010983576182" y1="140.37084112569926" y2="142.7455964860345" /><path d="M 175.68104954172406 140.8457921977663 a86.0,86.0 0 0,1 -30.038265399797805,32.042727171017184" fill="none" id="id65" stroke="none" /><text fill="#e1ed5e" style="font-size:6.75px; font-family:Arial;" text-anchor="middle"><textPath startOffset="22.206326154141568" xlink:href="#id65">May</textPath></text><line stroke="#e1ed5e" stroke-width="0.3" x1="143.8653032363475" x2="146.44561519142675" y1="172.8068346515853" y2="177.08958963109032" /><path d="M 144.38136562736335 173.6633856474863 a86.0,86.0 0 0,1 -40.68145358897372,12.25698825130547" fill="none" id="id66" stroke="none" /><text fill="#e1ed5e" style="font-size:6.75px; font-family:Arial;" text-anchor="middle"><textPath startOffset="21.466115282336833" xlink:href="#id66">June</textPath></text><line stroke="#e1ed5e" stroke-width="0.3" x1="102.19456741930631" x2="102.32365962044197" y1="184.97166512339345" y2="189.96999836594603" /><path d="M 102.22038585953345 185.97133177190398 a86.0,86.0 0 0,1 -42.740103519485714,-10.115201625700543" fill="none" id="id67" stroke="none" /><text fill="#e1ed5e" style="font-size:6.75px; font-family:Arial;" text-anchor="middle"><textPath startOffset="22.20632615414155" xlink:href="#id67">July</textPath></text><line stroke="#e1ed5e" stroke-width="0.3" x1="58.666819895761336" x2="56.23545636021788" y1="174.27360380694188" y2="178.64263932499728" /><path d="M 58.180547188652646 175.14741091055294 a86.0,86.0 0 0,1 -31.652253787137756,-30.449443065178592" fill="none" id="id68" stroke="none" /><text fill="#e1ed5e" style="font-size:6.75px; font-family:Arial;" text-anchor="middle"><textPath startOffset="22.20632615414155" xlink:href="#id68">August</textPath></text><line stroke="#e1ed5e" stroke-width="0.3" x1="26.63291911575756" x2="22.317208475507996" y1="142.92168965132927" y2="145.44649492493687" /><path d="M 25.769776987707644 143.4266507060508 a86.0,86.0 0 0,1 -11.730757126820373,-40.83630448921669" fill="none" id="id69" stroke="none" /><text fill="#e1ed5e" style="font-size:6.75px; font-family:Arial;" text-anchor="middle"><textPath startOffset="21.46611528233685" xlink:href="#id69">September</textPath></text><line stroke="#e1ed5e" stroke-width="0.3" x1="15.007084014347285" x2="10.007500721073583" y1="101.09737516637583" y2="101.16192664675087" /><path d="M 14.007167355692545 101.11028546245083 a86.0,86.0 0 0,1 10.666146001902534,-42.60595125391555" fill="none" id="id70" stroke="none" /><text fill="#e1ed5e" style="font-size:6.75px; font-family:Arial;" text-anchor="middle"><textPath startOffset="22.20632615414155" xlink:href="#id70">October</textPath></text><line stroke="#e1ed5e" stroke-width="0.3" x1="26.266209847984243" x2="21.928928074336255" y1="57.711370442889674" y2="55.22380399835377" /><path d="M 25.398753493254645 57.213857153982495 a86.0,86.0 0 0,1 29.58750427330803,-30.492523968695096" fill="none" id="id71" stroke="none" /><text fill="#e1ed5e" style="font-size:6.75px; font-family:Arial;" text-anchor="middle"><textPath startOffset="21.46611528233685" xlink:href="#id71">November</textPath></text><line stroke="#e1ed5e" stroke-width="0.3" x1="56.762969772571076" x2="54.21961505331055" y1="26.818313649435495" y2="22.513508569990535" /><path d="M 56.25429882871897 25.957352633546506 a86.0,86.0 0 0,1 42.265352541879196,-11.944610805530505" fill="none" id="id72" stroke="none" /><text fill="#e1ed5e" style="font-size:6.75px; font-family:Arial;" text-anchor="middle"><textPath startOffset="22.20632615414155" xlink:href="#id72">December</textPath></text></svg>