<?xml version="1.0" encoding="utf-8" ?>
<svg baseProfile="full" height="200mm" version="1.1" viewBox="0,0,200,200" width="200mm" xmlns="http://www.w3.org/2000/svg" xmlns:ev="http://www.w3.org/2001/xml-events" xmlns:xlink="http://www.w3.org/1999/xlink"><defs /><rect fill="#1a1a1a" height="200" width="200" x="0" y="0" /><text alignment-baseline="middle" fill="#e1ed5e" style="dominant-baseline: central; font-size:9.0px; font-family:Arial;" text-anchor="middle" x="100.0" y="100.0">2018</text><line stroke="#e1ed5e" stroke-width="0.3" x1="100.0" x2="100.0" y1="15.0" y2="10.0" /><path d="M 100.0 14.0 a86.0,86.0 0 0,1 42.46469731375804,11.215312516191453" fill="none" id="id25" stroke="none" /><text fill="#e1ed5e" style="font-size:6.75px; font-family:Arial;" text-anchor="middle"><textPath startOffset="22.20632615414155" xlink:href="#id25">January</textPath></text><path d="M 104.307194497241 79.44645832069477 l 9.434900533348488 -45.02249003997709 a67.00045605723943,67.00045605723943 0 0,0 1.1267475496021875,0.24626337281141206 l -10.208490807104203 44.85341316906981" fill="#37ff78" stroke="none" /><path d="M 106.74666289553966 80.11325718540242 l 14.424835546316011 -42.51924234158821 a65.89946380349068,65.89946380349068 0 0,0 1.0710796627958226,0.37367866314898407 l -15.154597213175109 42.26464282526702" fill="#36ff6b" stroke="none" /><line stroke="#e1ed5e" stroke-width="0.3" x1="143.23703022742887" x2="145.7803849466894" y1="26.81831364943548" y2="22.513508569990506" /><path d="M 143.74570117128098 25.957352633546492 a86.0,86.0 0 0,1 28.547481713284135,27.462654790039103" fill="none" id="id26" stroke="none" /><text fill="#e1ed5e" style="font-size:6.75px; font-family:Arial;" text-anchor="middle"><textPath startOffset="19.985693538727396" xlink:href="#id26">February</textPath></text><path d="M 116.15771136456269 86.58626213691792 l 3.2135270307420183 -2.667791757986299 a25.1765857876128,25.1765857876128 0 0,0 0.2739470388970085,0.3358266778252403 l -3.2589725617154355 2.612080910552958" fill="#ff0e01" stroke="none" /><path d="M 116.60985879189232 87.15038557335679 l 15.72157834806565 -12.162428499965031 a40.87693871729569,40.87693871729569 0 0,0 0.4257509517836681,0.5602383465817007 l -15.92860524007343 11.890005377502296" fill="#ffe915" stroke="none" /><line stroke="#e1ed5e" stroke-width="0.3" x1="172.23445277983987" x2="176.4835382374775" y1="55.19839476539836" y2="52.563006222186495" /><path d="M 173.08426987136738 54.67131705675599 a86.0,86.0 0 0,1 12.851231095245387,41.99856678651699" fill="none" id="id27" stroke="none" /><text fill="#e1ed5e" style="font-size:6.75px; font-family:Arial;" text-anchor="middle"><textPath startOffset="22.20632615414155" xlink:href="#id27">March</textPath></text><path d="M 119.34039704204932 91.81776055985345 l 7.856540495886867 -3.323825016042299 a29.530711652657054,29.530711652657054 0 0,0 0.1940284656611302,0.4698553197982707 l -7.912590648434195 3.188095125790725" fill="#ff4e07" stroke="none" /><path d="M 120.91429891909075 98.10471618934814 l 15.651782534858821 -1.418387016505891 a36.71591926191733,36.71591926191733 0 0,0 0.05162173658332688,0.6299159393805726 l -15.673878755261642 1.1487571599175497" fill="#ffb210" stroke="none" /><line stroke="#e1ed5e" stroke-width="0.3" x1="184.98032266829074" x2="189.97916517819016" y1="98.17113171792111" y2="98.06355123074" /><path d="M 185.9800911702706 98.14961562048488 a86.0,86.0 0 0,1 -9.607161424134198,41.387399972396054" fill="none" id="id28" stroke="none" /><text fill="#e1ed5e" style="font-size:6.75px; font-family:Arial;" text-anchor="middle"><textPath startOffset="21.466115282336823" xlink:href="#id28">April</textPath></text><path d="M 120.99824983174949 100.27111621757518 l 10.551788791284602 0.13623807168061344 a31.5526682648539,31.5526682648539 0 0,0 -0.011686413137370868,0.5430216976149641 l -10.547880315462223 -0.31784958508569233" fill="#ff6b09" stroke="none" /><path d="M 120.95626037817324 101.35467743843564 l 3.876115963626772 0.2505641154446819 a24.884206140182428,24.884206140182428 0 0,0 -0.03131077910141136,0.427210704308942 l -3.8712286258610233 -0.31724795625039415" fill="#ff0901" stroke="none" /><path d="M 120.8583938346157 102.4346265915055 l 10.574040155681004 1.2342196406295025 a31.645826568908117,31.645826568908117 0 0,0 -0.06781021115413619,0.5405141019603613 l -10.55122843528002 -1.4160514968772586" fill="#ff6c0a" stroke="none" /><path d="M 120.49622156327973 104.57218783832717 l 8.885284683746594 1.982081938647824 a30.103676879301887,30.103676879301887 0 0,0 -0.11717416721541132,0.5047832456311208 l -8.84984995060063 -2.1347338416275097" fill="#ff5608" stroke="none" /><path d="M 120.02730092923936 106.31721596034902 l 10.212038832937472 3.2211856670586685 a31.70802382454798,31.70802382454798 0 0,0 -0.16866818886492696,0.5191073081147558 l -10.155078393056298 -3.396491875151219" fill="#ff6d0a" stroke="none" /><line stroke="#e1ed5e" stroke-width="0.3" x1="174.80103733775053" x2="179.2010983576182" y1="140.37084112569926" y2="142.7455964860345" /><path d="M 175.68104954172406 140.8457921977663 a86.0,86.0 0 0,1 -30.038265399797805,32.042727171017184" fill="none" id="id29" stroke="none" /><text fill="#e1ed5e" style="font-size:6.75px; font-family:Arial;" text-anchor="middle"><textPath startOffset="22.206326154141568" xlink:href="#id29">May</textPath></text><path d="M 118.12598468904814 110.60418214915192 l 5.049290590262232 2.9539690152938847 a26.849894734798827,26.849894734798827 0 0,0 -0.23681495192258184,0.3969154809928317 l -4.997694762641423 -3.0404465901728206" fill="#ff2703" stroke="none" /><path d="M 117.55443506779139 111.5257021239791 l 21.598710680953193 14.181049097240633 a46.83808151891063,46.83808151891063 0 0,0 -0.4483004254200254,0.6701483098024693 l -21.351407150122448 -14.550734321248909" fill="#cbff1d" stroke="none" /><path d="M 114.29624159901734 115.38237550388516 l 7.241825866493304 7.792011910305533 a31.637645016212694,31.637645016212694 0 0,0 -0.40210008136355213,0.3673088906246952 l -7.106626235662889 -7.91551356751681" fill="#ff6c0a" stroke="none" /><path d="M 114.0293411484842 115.62618273729858 l 3.3665395647783094 3.749724372284959 a26.039248109522447,26.039248109522447 0 0,0 -0.33610177736422564,0.2965707406403546 l -3.301495434507496 -3.807118254697602" fill="#ff1b02" stroke="none" /><path d="M 113.20401910651253 116.32954008644616 l 6.810563626963332 8.422690914082127 a31.83168957970443,31.83168957970443 0 0,0 -0.4290343442705957,0.3408508307805691 l -6.664571789975385 -8.538675658867822" fill="#ff6f0a" stroke="none" /><path d="M 111.7513745106137 117.40417183066458 l 5.841800471290171 8.651898474596546 a31.439443469893025,31.439443469893025 0 0,0 -0.4511190369053992,0.2989770988916792 l -5.692006735644807 -8.751173594579544" fill="#ff6909" stroke="none" /><path d="M 111.45004920935366 117.60387380957326 l 2.8327879112567946 4.355268698610613 a26.195483883841813,26.195483883841813 0 0,0 -0.38010669731395014,0.24260207835169928 l -2.757399411895914 -4.403385205786121" fill="#ff1d02" stroke="none" /><line stroke="#e1ed5e" stroke-width="0.3" x1="143.8653032363475" x2="146.44561519142675" y1="172.8068346515853" y2="177.08958963109032" /><path d="M 144.38136562736335 173.6633856474863 a86.0,86.0 0 0,1 -40.68145358897372,12.25698825130547" fill="none" id="id30" stroke="none" /><text fill="#e1ed5e" style="font-size:6.75px; font-family:Arial;" text-anchor="middle"><textPath startOffset="21.466115282336833" xlink:href="#id30">June</textPath></text><path d="M 110.21172684928248 118.3499491758327 l 5.07310647006798 9.116112021335192 a31.432636658207628,31.432636658207628 0 0,0 -0.47504770657792245,0.2590338863591123 l -4.915435951621409 -9.202086559454075" fill="#ff6909" stroke="none" /><path d="M 108.2653958097858 119.30500536409082 l 4.210206517927184 9.833535051798172 a31.69692715402605,31.69692715402605 0 0,0 -0.5034204691475048,0.210429796932266 l -4.040314589282218 -9.904549891750412" fill="#ff6d0a" stroke="none" /><path d="M 107.2578585660854 119.70592522655815 l 3.0865037322127042 8.380214522598688 a29.93053753890195,29.93053753890195 0 0,0 -0.4849893554440844,0.17389992776748606 l -2.941794816138885 -8.432101991406135" fill="#ff5407" stroke="none" /><path d="M 106.91757812671514 119.82793768551818 l 2.4482349632746385 7.01740542746391 a28.432215912418066,28.432215912418066 0 0,0 -0.4634860984040239,0.15723964913980437 l -2.3270791319333877 -7.0585080635018365" fill="#ff3e05" stroke="none" /><path d="M 101.26447882468166 120.96189622390904 l 0.5482643248894263 9.08885119883049 a30.105372583504142,30.105372583504142 0 0,0 -0.5175427955953669,0.026751050947814117 l -0.39173346088057986 -9.096942056540506" fill="#ff5608" stroke="none" /><line stroke="#e1ed5e" stroke-width="0.3" x1="102.19456741930631" x2="102.32365962044197" y1="184.97166512339345" y2="189.96999836594603" /><path d="M 102.22038585953345 185.97133177190398 a86.0,86.0 0 0,1 -42.740103519485714,-10.115201625700543" fill="none" id="id31" stroke="none" /><text fill="#e1ed5e" style="font-size:6.75px; font-family:Arial;" text-anchor="middle"><textPath startOffset="22.20632615414155" xlink:href="#id31">July</textPath></text><path d="M 99.45781275523022 120.99299961872073 l -0.14423220539243495 5.584540510716569 a26.586402746392963,26.586402746392963 0 0,0 -0.45738696354538827,-0.015753331833258163 l 0.24033952061246627 -5.5812303804572165" fill="#ff2303" stroke="none" /><path d="M 98.37488393609728 120.93702456842531 l -0.8086633775168657 10.418335883036308 a31.449672675730035,31.449672675730035 0 0,0 -0.5393703961587022,-0.04653914733283806 l 0.9878780914171096 -10.402872483424806" fill="#ff6909" stroke="none" /><path d="M 97.65516085044442 120.86867818915974 l -1.1596713360218318 10.320881891288497 a31.385828836521306,31.385828836521306 0 0,0 -0.5363577749633531,-0.06494545702894004 l 1.3371565340365743 -10.29939090553421" fill="#ff6809" stroke="none" /><path d="M 95.16358092515715 120.4354850818985 l -1.10789506490441 4.681226486126761 a25.810541849859977,25.810541849859977 0 0,0 -0.43146218739958303,-0.10604290823995184 l 1.1883105370472034 -4.661462319572779" fill="#ff1702" stroke="none" /><path d="M 90.7491055286396 118.85261126421891 l -2.408996408699413 4.909349357590372 a26.468544121793265,26.468544121793265 0 0,0 -0.4072955524897111,-0.20422644533531253 l 2.493145868871885 -4.867155071345757" fill="#ff2103" stroke="none" /><line stroke="#e1ed5e" stroke-width="0.3" x1="58.666819895761336" x2="56.23545636021788" y1="174.27360380694188" y2="178.64263932499728" /><path d="M 58.180547188652646 175.14741091055294 a86.0,86.0 0 0,1 -31.652253787137756,-30.449443065178592" fill="none" id="id32" stroke="none" /><text fill="#e1ed5e" style="font-size:6.75px; font-family:Arial;" text-anchor="middle"><textPath startOffset="22.20632615414155" xlink:href="#id32">August</textPath></text><path d="M 89.4739219176387 118.17145234162733 l -31.57823424708386 54.51435702488198 a84.0,84.0 0 0,0 -1.2449285158864716,-0.735525710825002 l 32.511930633998716 -53.962712741763234" fill="#4dd2ff" stroke="none" /><path d="M 87.07902340077011 116.55440617244103 l -5.542250861424884 7.100753659367911 a30.007621614055047,30.007621614055047 0 0,0 -0.4044491647252828,-0.3213188772556001 l 5.663657518867525 -7.00430086810718" fill="#ff5507" stroke="none" /><path d="M 85.97065885151581 115.62618273729859 l -14.06145970271916 15.661957075695629 a42.0480770716027,42.0480770716027 0 0,0 -0.534411938783961,-0.4881726352943753 l 14.328971190969977 -15.417591673814679" fill="#fff817" stroke="none" /><path d="M 83.28015986056508 112.70617746262583 l -8.26338755743653 6.279729224180928 a31.37875585286738,31.37875585286738 0 0,0 -0.32310963896705847,-0.4328581632189333 l 8.370258463098674 -6.136558181452687" fill="#ff6809" stroke="none" /><path d="M 82.6465618267979 111.8261652097733 l -2.6982559415620746 1.838829874787711 a24.265253502346614,24.265253502346614 0 0,0 -0.23224955239966988,-0.3471815688044322 l 2.729508599372475 -1.7921113917774578" fill="#ff0000" stroke="none" /><line stroke="#e1ed5e" stroke-width="0.3" x1="26.63291911575756" x2="22.317208475507996" y1="142.92168965132927" y2="145.44649492493687" /><path d="M 25.769776987707644 143.4266507060508 a86.0,86.0 0 0,1 -11.730757126820373,-40.83630448921669" fill="none" id="id33" stroke="none" /><text fill="#e1ed5e" style="font-size:6.75px; font-family:Arial;" text-anchor="middle"><textPath startOffset="21.46611528233685" xlink:href="#id33">September</textPath></text><path d="M 81.69416730710424 110.29060199501025 l -7.594419347330888 4.26919376996803 a29.71213066182134,29.71213066182134 0 0,0 -0.2467855482324079,-0.44798745374993587 l 7.666781305014812 -4.137835797820272" fill="#ff5107" stroke="none" /><path d="M 81.35079622478065 109.6543875284942 l -6.731628990047586 3.484854139152168 a28.58017395782017,28.58017395782017 0 0,0 -0.22241000218699383,-0.4388360343573199 l 6.790617662020846 -3.368463893092163" fill="#ff4006" stroke="none" /><path d="M 80.58989483394504 108.01547362559985 l -43.15747092049914 17.822034808746064 a67.6925285348511,67.6925285348511 0 0,0 -0.4354801733031221,-1.0808260766692626 l 43.457853708059645 -17.076509364233996" fill="#38ff81" stroke="none" /><path d="M 79.86692584326677 105.97154293290107 l -10.045408951432002 2.9795047872489606 a31.477962100463508,31.477962100463508 0 0,0 -0.1496063044498293,-0.5207991722931282 l 10.095207892767935 -2.8061481394512366" fill="#ff6a09" stroke="none" /><path d="M 79.67330655649465 105.27499134158121 l -3.2148173411035326 0.8342790078582417 a24.321305767256746,24.321305767256746 0 0,0 -0.10167311752073728,-0.4061335639085999 l 3.2287017729193286 -0.7788176045522499" fill="#ff0100" stroke="none" /><line stroke="#e1ed5e" stroke-width="0.3" x1="15.007084014347285" x2="10.007500721073583" y1="101.09737516637583" y2="101.16192664675087" /><path d="M 14.007167355692545 101.11028546245083 a86.0,86.0 0 0,1 10.666146001902534,-42.60595125391555" fill="none" id="id34" stroke="none" /><text fill="#e1ed5e" style="font-size:6.75px; font-family:Arial;" text-anchor="middle"><textPath startOffset="22.20632615414155" xlink:href="#id34">October</textPath></text><path d="M 79.00486145842228 99.54816195383935 l -14.100878339609004 -0.3034661240982293 a35.104143420886274,35.104143420886274 0 0,0 0.01820117330664128,-0.6040083317638424 l 14.093565471846718 0.546144603287066" fill="#ff9c0e" stroke="none" /><path d="M 79.01574976396665 99.18683210126434 l -21.98790075639751 -0.8520607052705297 a43.004403811933926,43.004403811933926 0 0,0 0.03503096091865519,-0.7394482182280224 l 21.969976187245354 1.230420030121561" fill="#faff18" stroke="none" /><path d="M 79.05617556472873 98.46500227214037 l -10.479424106387652 -0.7680494191639822 a31.507532037153958,31.507532037153958 0 0,0 0.044298864141462065,-0.540558347434125 l 10.464650758426695 0.9483216838058856" fill="#ff6a09" stroke="none" /><path d="M 79.16333360222342 97.38593545837743 l -10.287069053333509 -1.290564523911146 a31.367706906468275,31.367706906468275 0 0,0 0.07182308802115295,-0.5351654302894898 l 10.263329966254522 1.4674482962652953" fill="#ff6809" stroke="none" /><line stroke="#e1ed5e" stroke-width="0.3" x1="26.266209847984243" x2="21.928928074336255" y1="57.711370442889674" y2="55.22380399835377" /><path d="M 25.398753493254645 57.213857153982495 a86.0,86.0 0 0,1 29.58750427330803,-30.492523968695096" fill="none" id="id35" stroke="none" /><text fill="#e1ed5e" style="font-size:6.75px; font-family:Arial;" text-anchor="middle"><textPath startOffset="21.46611528233685" xlink:href="#id35">November</textPath></text><path d="M 82.34701348167596 88.62581576622439 l -26.765329996183837 -17.245455557244604 a52.84004753736271,52.84004753736271 0 0,0 0.4992211056790572,-0.7603479935405891 l 26.46451225514686 17.70362161476286" fill="#86ff25" stroke="none" /><path d="M 83.6137871275137 86.86637796730984 l -20.212652144166505 -16.20053001907865 a46.9038313691266,46.9038313691266 0 0,0 0.5103617235828586,-0.6256431272631133 l 19.930791928507254 16.546057315949845" fill="#caff1d" stroke="none" /><path d="M 87.22198572758235 83.33499621200491 l -15.04372927832312 -19.61993468343444 a45.72358444040245,45.72358444040245 0 0,0 0.6287076605294877,-0.4735295754340846 l 14.703775464035242 19.87598084837438" fill="#d9ff1c" stroke="none" /><line stroke="#e1ed5e" stroke-width="0.3" x1="56.762969772571076" x2="54.21961505331055" y1="26.818313649435495" y2="22.513508569990535" /><path d="M 56.25429882871897 25.957352633546506 a86.0,86.0 0 0,1 42.265352541879196,-11.944610805530505" fill="none" id="id36" stroke="none" /><text fill="#e1ed5e" style="font-size:6.75px; font-family:Arial;" text-anchor="middle"><textPath startOffset="22.20632615414155" xlink:href="#id36">December</textPath></text></svg>